<svg width="183" height="72" viewBox="0 0 183 72" fill="none" xmlns="http://www.w3.org/2000/svg">
<path d="M45.3466 26.2372C44.6674 26.7227 43.9406 27.4871 43.5223 28.0986C43.0461 27.5016 42.2344 26.7868 41.6152 26.3632C42.2261 25.886 43.1538 24.9378 43.5223 24.4171C43.8909 24.9336 44.7896 25.8096 45.3466 26.2372Z" fill="#555C49"/>
<path d="M56.4016 31.0302C56.3022 32.2904 55.3352 33.561 53.9892 33.561C52.7344 33.561 51.9599 33.0528 51.5354 32.1603L51.3677 32.2636V40.7401C52.0842 41.1223 53.2023 41.7937 53.8215 42.2049L55.1633 40.8248L55.3724 41.0087L52.1628 44.3369C50.7403 43.3101 48.7773 42.1222 47.5701 41.5541V41.4901C48.1374 41.1388 48.3466 40.5893 48.3466 39.2526V33.4556C50.5477 32.6003 52.2892 31.3835 53.5274 30.2968C53.7697 30.6955 54.3267 31.1955 55.037 31.1955C55.6271 31.1955 56.0889 31.0633 56.3187 30.9021L56.4016 31.0302V31.0302Z" fill="#555C49"/>
<path d="M47.2766 41.5767L44.593 44.3574C43.8973 43.7686 42.6487 42.9526 41.5947 42.37V42.3039C41.9922 42.1386 42.2635 41.4899 42.2635 40.6739V33.0382L41.3006 32.3688L40.5241 33.1621L40.3357 32.9762L42.9572 30.2367C43.5825 30.7512 44.8519 31.6044 45.9141 32.1808V32.2221C45.4834 32.4804 45.2846 33.3109 45.2846 34.2715V41.5767L46.291 42.2047L47.0675 41.3845L47.2766 41.5767V41.5767Z" fill="#555C49"/>
<path d="M41.1121 41.6139L38.4471 44.3574C37.9025 43.936 36.8092 43.2005 36.0782 42.81V33.6022C35.5005 33.3398 34.7116 32.7655 34.3803 32.4514L33.436 33.4348V41.554L34.7571 42.3039V42.37L32.8065 44.3574C32.0652 43.7294 30.7855 42.9092 29.7854 42.3927V42.3493C30.1416 42.0146 30.3942 41.4259 30.3942 40.2999V26.4871C30.3942 25.4417 30.2057 25.1277 29.9966 24.7723L30.1416 24.7104C30.6033 25.1091 30.8911 25.4458 31.003 26.1524H31.0465C31.7215 25.0285 32.5601 24.291 34.1918 24.0823L34.2332 24.167C33.7777 24.7207 33.436 25.326 33.436 26.2578V33.0382L36.0368 30.2967C36.9169 31.0301 38.4057 32.1808 39.7061 32.8501V32.9101C39.3499 33.2902 39.1408 34.0195 39.1408 35.2797V41.6139L40.1264 42.244L40.9236 41.43L41.1121 41.6139V41.6139Z" fill="#555C49"/>
<path d="M25.0043 43.5215H24.7744V27.9753H25.0043V43.5215Z" fill="#555C49"/>
<path d="M29.2406 41.1993C27.8822 42.7777 25.3187 45.3643 21.3554 45.3643C15.9612 45.3643 12 41.7075 12 35.4663C12 29.7375 16.7357 26.5621 19.8024 25.3804L20.055 25.5064C17.1622 27.4195 15.6071 29.7354 15.6071 33.7702C15.6071 37.3298 16.8868 39.8647 18.8167 41.346L19.4669 40.906V31.9914C19.4669 30.3821 19.1749 29.252 18.6904 28.8574V28.7273C21.0613 27.622 23.5151 25.8825 25.2151 24.333C25.739 24.9445 26.3892 25.2131 27.2071 25.2131C28.0975 25.2131 28.696 24.8991 29.0935 24.6078L29.2406 24.7317C29.1619 26.5518 28.1928 28.2459 25.9067 28.2459C24.48 28.2459 23.7035 27.7666 22.9912 26.9485L22.8856 26.9691V39.0239C21.7695 39.6478 19.9473 40.8936 19.0693 41.5547C20.3759 42.4554 22.281 42.6207 24.2295 42.6207C26.0517 42.6207 27.6689 41.91 29.137 40.8874L29.2406 41.1993V41.1993Z" fill="#555C49"/>
<path d="M84.7747 42.4112V33.7487C84.0665 33.3107 82.9235 32.4203 82.47 32.0546L82.1346 32.2426V40.9051C82.6212 41.1902 83.5613 41.9091 84.4434 42.5992L84.7747 42.4112V42.4112ZM88.5123 32.9099C88.0899 33.1 87.8414 33.6846 87.8414 34.8808V41.1137C86.5948 41.6592 83.7497 43.2437 82.323 44.3779C80.8342 43.2933 80.0577 42.7045 78.4011 41.8038V41.7439C78.8215 41.4897 79.0948 40.7997 79.0948 39.7131V33.5607C81.0019 32.6413 83.0767 31.3419 84.5469 30.2758C85.4912 30.9659 87.3589 32.2426 88.5123 32.85V32.9099V32.9099Z" fill="#555C49"/>
<path d="M73.2198 41.7443V33.6665C72.1969 33.0364 71.3127 32.3918 70.8924 32.0324L70.5777 32.2224V40.8436C71.0912 41.137 72.1824 41.922 72.6753 42.2877L73.2198 41.7443V41.7443ZM77.5186 43.3744C77.5186 44.1904 76.3549 45.0478 75.1083 46.0498C73.4766 47.3699 72.6338 48 72.6338 48C71.8242 47.5434 71.3583 47.4133 70.1594 47.4133C68.6457 47.4133 67.7884 47.5703 66.7199 48L66.6558 47.9773C67.5172 46.3762 69.2276 45.0478 71.6254 45.0478C72.696 45.0478 73.9052 45.492 74.69 46.0126C74.8992 45.8804 75.5701 45.3907 75.5701 45.0292C75.5701 43.959 73.5926 44.0603 73.2633 42.0997L70.998 44.3784C70.002 43.5934 67.9831 42.3083 66.9063 41.7443V41.6596C67.3702 41.3642 67.5586 40.9655 67.5586 39.9429V33.5612C69.7784 32.3939 71.8118 31.2246 73.0542 30.2763C74.0274 31.0841 75.9138 32.2823 76.9533 32.8505V32.9104C76.4729 33.2058 76.3031 33.6665 76.3031 35.3399V40.4036C76.3031 42.0997 77.5186 41.9716 77.5186 43.3744" fill="#555C49"/>
<path d="M61.3067 42.12V36.5296C59.4825 36.7465 58.4554 38.0377 58.4554 39.6512C58.4554 40.8804 59.3354 42.1386 60.6793 42.5559L61.3067 42.12ZM61.3067 36.261V33.7695C60.5592 33.3398 59.2795 32.4514 58.708 31.9907L58.3726 32.2015C58.4761 33.6765 58.6811 35.6061 59.6709 36.5978C60.0312 36.4738 60.876 36.3106 61.3067 36.261ZM66.5725 41.6387L63.8868 44.3368C63.2325 43.7934 61.9528 42.8947 61.2239 42.5394H61.2032C60.29 43.186 59.5529 43.7335 58.6645 44.3574C57.0722 43.8347 55.7925 42.4051 55.7925 40.74C55.7925 38.4964 57.6043 37.3415 59.2733 36.7424V36.7197C57.8363 36.0255 56.6601 34.7095 56.3371 33.1208L60.9506 30.276C61.8555 31.0466 63.9303 32.3915 65.0837 33.0382V33.1001C64.5163 33.4782 64.3714 33.941 64.3714 35.131V41.4486L65.5868 42.2254L66.3634 41.43L66.5725 41.6387Z" fill="#555C49"/>
<path d="M161.626 41.6592L158.94 44.3779C158.267 43.849 157.178 43.1487 156.571 42.8099V33.54C156.124 33.2694 155.434 32.7446 155.145 32.4926L153.886 33.7693V41.5765C154.298 41.7542 154.892 42.1157 155.186 42.3285V42.3926L153.237 44.3779C152.527 43.785 151.264 42.9793 150.194 42.4112V42.3492C150.635 42.0992 150.846 41.5765 150.846 40.3803V33.5813L149.4 32.4306L148.622 33.226L148.431 33.038L151.117 30.2965C151.587 30.7965 152.929 31.8852 153.886 32.4719V33.29L156.737 30.2965C157.725 31.0712 159.317 32.0877 160.241 32.6413V32.7054C159.737 32.976 159.59 33.6454 159.59 34.8374V41.5765L160.638 42.2666L161.435 41.4691L161.626 41.6592V41.6592Z" fill="#555C49"/>
<path d="M149.649 41.5972L146.984 44.3573C146.267 43.7726 145.069 42.971 144.362 42.5785V41.6137L141.323 44.3779C140.105 43.3739 139.078 42.7231 137.989 42.1839V42.1199C138.55 41.8162 138.68 41.2604 138.68 39.9424V33.0814L137.716 32.4079L136.898 33.2467L136.688 33.0587L139.351 30.2965C139.865 30.7386 140.975 31.5278 141.702 31.8666V41.3245C142.014 41.5001 142.621 41.9091 143.126 42.3037L144.342 41.1757C144.342 41.1757 144.34 35.2341 144.342 33.0587C144.013 32.8025 143.389 32.4719 143.083 32.3252V32.2633C143.611 31.817 144.588 30.8729 145.033 30.2965C145.777 30.8936 147.272 31.8005 148.036 32.222V32.2633C147.57 32.4781 147.384 32.976 147.384 34.0606V41.4484L148.727 42.2046L149.481 41.4298L149.649 41.5972V41.5972Z" fill="#555C49"/>
<path d="M123.937 26.2586C123.318 26.6883 122.486 27.6056 122.111 28.1221C121.815 27.7585 121.042 26.9445 120.245 26.3433C120.777 25.9115 121.697 24.9674 122.111 24.3579C122.533 24.893 123.432 25.8309 123.937 26.2586Z" fill="#555C49"/>
<path d="M125.909 41.5972L123.223 44.3779C122.422 43.7375 121.078 42.8471 120.202 42.3926V42.3285C120.664 42.0331 120.855 41.4484 120.855 40.5704V33.0814L119.869 32.3914L119.113 33.162L118.923 32.976L121.546 30.2552C122.281 30.9617 123.739 31.8088 124.503 32.2013V32.2426C124.072 32.4988 123.874 32.9099 123.874 34.0234V41.5972L124.921 42.2252L125.721 41.4071L125.909 41.5972V41.5972Z" fill="#555C49"/>
<path d="M119.113 31.1311C119.017 32.2199 118.042 33.6247 116.827 33.6247C115.938 33.6247 115.255 33.226 114.793 32.5752L114.478 32.8913V41.0311C115.218 41.3803 116.185 41.9587 116.595 42.2252L117.371 41.4298L117.582 41.6137L114.857 44.3779C113.592 43.4235 111.873 42.3388 110.851 41.8265V41.8038C111.298 41.6447 111.48 41.279 111.48 40.5539V33.5607L110.136 32.3914L109.382 33.2053L109.192 33.0153L111.772 30.2965C112.542 31.1435 113.834 32.1249 114.437 32.5566L116.576 30.3192C116.978 30.813 117.417 31.2365 118.17 31.2365C118.462 31.2365 118.777 31.1539 119.009 31.0506L119.113 31.1311Z" fill="#555C49"/>
<path d="M110.933 24.5823C110.635 26.8982 109.68 28.96 107.22 28.96C106.929 28.96 106.382 28.9166 106.193 28.896V42.62C107.682 42.4113 109.5 41.6903 110.221 41.1139L110.327 41.3846C109.202 42.9919 106.106 45.4482 102.272 45.4482C97.424 45.4482 93.6719 42.2626 93.6719 37.1163C93.6719 32.6849 97.3391 29.4889 99.7329 28.6439L99.942 28.7266C98.271 30.245 97.0906 32.313 97.0906 35.571C97.0906 38.2877 98.2026 40.0892 99.9006 41.43L100.654 40.9486V34.2096C100.654 32.7882 100.534 31.7449 99.7122 31.4453V31.342C100.808 30.8896 102.831 29.8938 104.075 29.1253V39.0397C102.967 39.6471 101.1 40.9156 100.153 41.6387C101.244 42.3927 102.837 42.7687 104.493 42.7687C105.063 42.7687 105.326 42.7398 105.964 42.6427V28.8712C102.945 28.6212 99.7266 27.3713 97.2584 27.3713C95.5252 27.3713 94.2186 28.0778 94.2186 29.3959C94.2186 30.1934 94.846 30.5363 95.2457 30.716L94.9102 30.902C94.1731 30.5694 93.2537 29.7698 93.2537 28.0778C93.2537 25.6152 95.2395 23.9997 97.9086 23.9997C101.601 23.9997 105.073 25.9437 108.332 25.9437C109.339 25.9437 110.271 25.4128 110.745 24.4377L110.933 24.5823Z" fill="#555C49"/>
<path d="M168.188 35.7361C167.757 35.1267 166.399 33.1082 165.799 32.16L165.59 32.3252V37.4715L168.188 35.7361ZM171 34.292C169.253 35.3601 167.174 36.7319 165.59 37.8702V40.8245C166.289 41.1365 167.492 41.8782 168.043 42.2438L169.468 40.7791L169.656 40.9485L166.325 44.3779C165.289 43.6321 163.264 42.3451 161.833 41.5765V41.5145C162.293 41.3844 162.55 40.7171 162.55 39.2523V33.5607C164.519 32.6806 166.343 31.47 167.811 30.2758L171 34.292V34.292Z" fill="#555C49"/>
<path d="M132.726 42.3926V33.6247L131.067 32.4926L130.081 33.4347V40.8865L132.326 42.5992L132.726 42.3926V42.3926ZM136.436 32.9326C135.923 33.1454 135.788 33.79 135.788 35.2795V41.1592C134.486 41.6137 131.611 43.1032 130.27 44.3779C129.259 43.6755 127.648 42.5744 126.346 41.8038V41.7439C126.954 41.4071 127.039 40.8431 127.039 39.1449V26.5923C127.039 25.6523 126.872 25.1709 126.66 24.7949L126.789 24.7309C127.23 25.1069 127.524 25.5469 127.648 26.1522H127.692C128.367 25.0304 129.207 24.3094 130.835 24.1028L130.858 24.2268C130.404 24.7846 130.081 25.2804 130.081 26.3629V33.038L132.661 30.2965C133.438 30.9906 135.436 32.2529 136.436 32.8707V32.9326V32.9326Z" fill="#555C49"/>
</svg>
