<svg width="51" height="50" viewBox="0 0 51 50" fill="none" xmlns="http://www.w3.org/2000/svg">
<path d="M0.5 0H50.5V40.5547H0.5V0Z" fill="#4B523E"/>
<path d="M0.5 41.1094H50.5V50H0.5V41.1094Z" fill="#4B523E"/>
<path d="M50.5 29.0283H50.4069C49.8522 27.668 49.2247 26.3401 48.5243 25.0486H49.1397C49.6255 25.9798 50.0789 26.9231 50.5 27.8826V29.0283ZM0.5 5.55466C2.96154 4.72874 5.4919 4.14575 8.0668 3.80972L8.79959 0H14.7389L13.4069 3.45749C15.0061 3.45344 16.6012 3.54656 18.1883 3.73684L20.0385 0H26.5648L23.4555 4.72065C27.581 5.78947 31.5081 7.50607 35.087 9.80972C35.7996 10.2672 36.4919 10.749 37.164 11.247H36.2206C32.2652 8.46154 27.832 6.41296 23.1397 5.21053L19.3381 11.1093H16.6093V15.1255L9.87652 26.1093H7.72267V29.7814L0.823887 40.5547H0.605263L17.9372 4.25506C16.3704 4.07287 14.7915 3.98785 13.2166 4L0.548583 40.5547H0.5V5.55466ZM0.5 39.8785L7.94534 4.38462C5.42308 4.73684 2.9413 5.33603 0.532389 6.16599H0.5V39.8785Z" fill="white"/>
<path d="M21.0557 20.3766H24.7075V16.9636H21.0557V15.3361H25.501L25.2581 11.915H17.3391V24.4414H21.0557V20.3766ZM36.5051 24.4049H40.501L42.3229 21.3321L44.1893 24.409H48.2784L44.335 17.9191L47.8856 11.9353H43.8371L42.3107 14.5345L40.7277 11.9272H36.6103L40.2662 17.9474L36.5051 24.4049ZM31.8573 24.5426C35.3917 24.5912 38.2986 21.7733 38.3593 18.2389C38.2095 14.6438 35.1771 11.8503 31.5779 11.996C28.1893 12.1377 25.4767 14.8503 25.335 18.2389C25.3917 21.7774 28.3067 24.5993 31.8451 24.5426H31.8573ZM30.7075 15.4899C30.7115 14.8705 31.2014 14.3685 31.8168 14.3401C32.4524 14.3523 32.9666 14.8584 32.9909 15.4899V20.8057C32.9464 21.4373 32.3998 21.911 31.7682 21.8665C31.1974 21.826 30.748 21.3725 30.7075 20.8057V15.4899ZM21.9018 33.7936H25.6832V31.2875H21.9018V29.5831H26.5091V26.8705H18.9828V38.5831H26.5658V35.7653H21.9018V33.7936ZM38.1771 26.8705L36.7277 33.575L35.3107 26.8705H32.8087L31.4605 33.6438L30.0557 26.8705H27.0719L29.7804 38.5831H32.501L33.833 31.8705L35.2055 38.5831H37.8694L40.5901 26.8705H38.1771ZM48.0557 32.162C47.2784 31.4454 46.3877 31.2551 45.3877 30.9717C44.2055 30.6398 43.5537 30.6033 43.5537 29.9151C43.6022 29.4049 44.0557 29.0325 44.5658 29.081C44.5699 29.081 44.5739 29.081 44.5739 29.081C45.3269 29.0203 46.0152 29.5183 46.1893 30.2551L48.7439 29.4049C48.2703 27.6236 46.6184 26.413 44.7763 26.494C42.1083 26.494 40.4767 28.1337 40.4767 30.3402C40.4767 32.247 41.586 33.1863 43.8087 33.8503C45.1367 34.2511 45.8411 34.2187 45.8411 35.073C45.8411 35.5224 45.4241 35.8746 44.7318 35.8746C43.8168 35.9798 42.9828 35.3523 42.8249 34.4454L40.0233 35.0608C40.501 37.2835 42.1569 38.6033 44.6954 38.6033C45.9504 38.6357 47.1609 38.1377 48.0273 37.2309C48.667 36.5264 49.0192 35.6074 49.0112 34.6519C49.0638 33.7207 48.7116 32.8138 48.0516 32.158H48.0557V32.162ZM15.3472 32.7491L11.8573 26.9232H8.47266V38.5912H11.4443V31.7734L15.4281 38.575H18.2459V26.907H15.3553L15.3472 32.7491Z" fill="white"/>
<path d="M5.30565 45.1296C5.62549 45.0729 5.94128 45.2551 6.05464 45.5588H7.72266C7.61739 44.7693 6.72266 44.2996 5.32994 44.2996C3.7348 44.3199 2.72266 45.0041 2.72266 46.1175C2.72266 47.1296 3.71861 47.7855 5.22873 47.7855C6.62144 47.7855 7.53237 47.3037 7.70241 46.4818H6.05869C5.96557 46.7976 5.70241 46.9555 5.27731 46.9555C4.72266 46.9555 4.42306 46.66 4.42306 46.0729C4.42306 45.4859 4.7348 45.1296 5.30565 45.1296ZM21.5283 47.0405V45.8138C21.5931 45.4332 21.4676 45.0446 21.1963 44.7733C20.6376 44.4373 19.9858 44.2875 19.334 44.3523C17.8967 44.3523 17.1113 44.7005 16.9494 45.4616H18.4757C18.5405 45.2227 18.8198 45.0932 19.2976 45.0932C19.7753 45.0932 19.9534 45.1944 19.9534 45.3806V45.4575C19.9534 45.7086 19.3259 45.6559 18.1518 45.8341C17.2571 45.9677 16.8077 46.2996 16.8077 46.8381C16.8077 47.3766 17.3947 47.7733 18.3907 47.7733C18.9575 47.7895 19.5202 47.6357 20.002 47.3361C20.0182 47.4494 20.0465 47.5628 20.087 47.6681H21.755V47.5466C21.6093 47.4899 21.5324 47.3199 21.5324 47.0284L21.5283 47.0405ZM19.9453 46.5183C19.9453 46.8624 19.5445 47.0729 18.9858 47.0729C18.6133 47.0729 18.3745 46.911 18.3745 46.6883C18.3745 46.4656 18.5486 46.3928 18.9291 46.328C19.2733 46.2956 19.6133 46.2349 19.9453 46.1458V46.5183ZM27.4231 44.3563C26.8603 44.3077 26.3056 44.498 25.8886 44.8786V44.4454H24.2773V47.6843H25.9453V45.9434C25.9453 45.3887 26.1842 45.162 26.7834 45.162C27.3826 45.162 27.4797 45.4494 27.4797 46.0446V47.6721H29.1478V45.5547C29.1275 44.7369 28.67 44.3563 27.4433 44.3563H27.4231ZM13.0101 44.4009C12.4474 44.3604 11.8886 44.5426 11.4555 44.9069V43.3361H9.78743V47.7247H11.4555V45.996C11.4555 45.4413 11.6943 45.2146 12.2935 45.2146C12.8927 45.2146 12.9899 45.5021 12.9899 46.0972V47.7247H14.6579V45.5021C14.6579 44.7814 14.087 44.4009 13.0263 44.4009H13.0101ZM35.2328 44.3563C34.67 44.3077 34.1154 44.498 33.6984 44.8786V44.4454H32.1154V47.6843H33.7834V45.9434C33.7834 45.3887 34.0222 45.162 34.6214 45.162C35.2206 45.162 35.3178 45.4494 35.3178 46.0446V47.6721H36.9858V45.5547C36.9656 44.7369 36.504 44.3563 35.2733 44.3563H35.2328ZM41.7105 44.3239C40.168 44.3239 39.168 44.9839 39.168 46.0689C39.168 47.1539 40.1882 47.7814 41.751 47.7814C43.0465 47.7814 43.9737 47.3685 44.253 46.6721H42.6579C42.5405 46.9069 42.2571 47.0284 41.8077 47.0284C41.2206 47.0284 40.9008 46.7855 40.9008 46.328H44.3218C44.3259 46.2632 44.3259 46.2025 44.3218 46.1377C44.334 45.0041 43.3421 44.328 41.751 44.328L41.7105 44.3239ZM40.8158 45.7045C40.8806 45.2713 41.2287 45.0365 41.7591 45.0365C42.2895 45.0365 42.6943 45.2794 42.7024 45.7045H40.8158ZM46.6093 43.332V47.7207H48.2773V43.332H46.6093Z" fill="white"/>
</svg>
