<svg width="183" height="72" viewBox="0 0 183 72" fill="none" xmlns="http://www.w3.org/2000/svg">
<g clip-path="url(#clip0_1612_226947)">
<path d="M24.2473 27.2492C24.2473 25.5303 22.6143 25.1006 21.3251 25.1006V25.3584C22.0986 25.3584 22.7002 25.6163 22.7002 26.2179C22.7002 26.5617 22.4424 27.0773 21.6689 27.0773C21.0673 27.0773 19.7781 26.7336 18.8327 26.3898C17.7154 25.96 16.684 25.6163 15.8246 25.6163C14.1056 25.6163 12.9024 26.9055 12.9024 28.3665C12.9024 29.6557 13.8478 30.0855 14.1916 30.2573L14.2775 30.0855C14.1056 29.9136 13.8478 29.7417 13.8478 29.226C13.8478 28.8822 14.1916 28.2806 15.051 28.2806C15.8246 28.2806 16.8559 28.6244 18.231 29.0541C19.4343 29.3979 20.7235 29.6557 21.411 29.7417V32.406L20.1219 33.5233V33.6092L21.411 34.7265V38.4222C20.7235 38.8519 19.95 38.9379 19.2624 38.9379C17.9732 38.9379 16.8559 38.5941 15.9105 37.5627L19.4343 35.8438V29.9136L15.137 31.8044C15.4808 30.6871 16.4262 29.9136 17.3716 29.3979L17.2856 29.14C14.7073 29.8276 12.3867 32.2341 12.3867 35.1563C12.3867 38.5941 15.2229 41.1725 18.4029 41.1725C21.8408 41.1725 24.0754 38.4222 24.0754 35.586H23.9035C23.3878 36.7033 22.6143 37.7346 21.6689 38.2503V34.7265L23.044 33.6092V33.5233L21.6689 32.406V29.7417C22.9581 29.7417 24.2473 28.8822 24.2473 27.2492ZM16.77 36.7033L15.7386 37.219C15.137 36.4455 14.7932 35.4141 14.7932 33.953C14.7932 33.3514 14.7932 32.6638 14.9651 32.1482L16.77 31.3746V36.7033V36.7033ZM25.8802 38.68L24.7629 39.5395L24.9348 39.7114L25.4505 39.2817L27.3413 41.0006L29.9197 39.2817L29.8337 39.1098L29.1462 39.5395L28.2867 38.68V32.8357L28.9743 32.32L30.4354 33.5233V38.766C30.4354 42.0319 29.7478 42.5476 28.2867 43.0633V43.3211C30.6932 43.4071 32.9278 42.6336 32.9278 38.4222V32.7498L33.7013 32.1482L33.5294 31.9763L32.8419 32.4919L30.6932 30.6871L28.2867 32.4919V25.4444H28.1148L25.1067 27.5071V27.679C25.4505 27.8509 25.9662 28.0227 25.9662 28.9682L25.8802 38.68V38.68ZM41.6083 37.7346L39.4597 39.3676L37.311 37.6487V36.6173L41.3505 33.8671V33.7811L39.2878 30.6871L34.8186 33.0936V38.766L33.9592 39.4536L34.131 39.6255L34.9046 39.0238L37.8267 41.1725L41.6943 38.0784L41.6083 37.7346V37.7346ZM37.311 36.2736V32.0622L37.4829 31.9763L39.3737 34.9844L37.311 36.2736ZM58.024 26.4757C58.024 26.2179 57.9381 25.96 57.8521 25.7022H57.6802C57.4224 26.3898 57.0786 26.7336 56.2192 26.7336C55.4456 26.7336 54.93 26.3038 54.5862 25.96L52.0937 28.7963L52.2656 28.9682L53.1251 28.1946C53.6408 28.6244 54.0705 28.9682 55.2738 29.0541V36.1876L50.2029 27.5071C49.7732 26.8195 49.1716 25.8741 47.9683 25.8741C46.5932 25.8741 45.39 27.0773 45.5619 28.9682H45.8197C45.9056 28.4525 46.1635 27.8509 46.7651 27.8509C47.1948 27.8509 47.6246 28.2806 47.8824 28.7103V31.5465C46.3354 31.5465 45.304 32.2341 45.304 33.5233C45.304 34.2109 45.6478 35.2422 46.6792 35.5V35.3282C46.5073 35.1563 46.4213 34.9844 46.4213 34.7265C46.4213 34.2968 46.7651 33.953 47.3667 33.953H47.7965V37.5627C45.9916 37.5627 44.5305 38.5941 44.5305 40.313C44.5305 41.946 45.9056 42.7195 47.4527 42.6336V42.4617C46.5073 42.3757 46.0775 41.946 46.0775 41.3444C46.0775 40.5709 46.5932 40.2271 47.2808 40.2271C47.9683 40.2271 48.57 40.6568 48.9997 41.1725L51.4921 38.4222L51.3202 38.2503L50.7186 38.9379C49.7732 38.0784 49.2575 37.8206 48.1402 37.6487V29.0541L55.0159 41.0865H55.5316V29.0541C56.8208 28.9682 58.024 27.9368 58.024 26.4757V26.4757ZM64.2981 37.7346L62.1494 39.3676L60.0008 37.6487V36.6173L64.0402 33.8671V33.7811L61.9775 30.6871L57.5083 33.0936V38.766L56.6489 39.4536L56.8208 39.6255L57.5943 39.0238L60.5165 41.1725L64.384 38.0784L64.2981 37.7346V37.7346ZM60.0008 36.2736V32.0622L60.1727 31.9763L62.0635 34.9844L60.0008 36.2736V36.2736ZM78.3073 31.6325L77.7056 32.0622L76.0727 30.6871L74.1819 32.406L74.9554 33.1795V39.6255L72.8927 38.3363V33.0076L73.5802 32.5779L71.6035 30.6871L69.7127 32.406L70.4862 33.1795V39.3676L70.2283 39.5395L68.4235 38.2503V33.0936C68.4235 31.8903 67.8219 31.5465 67.1343 31.1168C66.5327 30.6871 66.1889 30.4292 66.1889 29.8276C66.1889 29.3119 66.7046 29.0541 66.9624 28.8822V28.7103C66.2748 28.7103 64.47 29.3979 64.47 31.0309C64.47 31.8903 64.8997 32.2341 65.3294 32.6638C65.7592 33.0936 66.1889 33.4373 66.1889 34.2109V39.1957L65.2435 39.8833L65.4154 40.0552L66.2748 39.3676L68.2516 41.0865L70.4002 39.6255L72.8067 41.0865L77.3619 38.4222V32.6638L78.4792 31.8044L78.3073 31.6325V31.6325ZM94.2932 26.9055L93.4338 27.679L91.5429 25.96L88.7067 28.0227V26.1319H88.4489L88.5348 40.0552C88.277 40.0552 87.5035 39.8833 86.9019 39.7114L86.73 28.1087C86.73 27.2492 86.1283 26.046 84.5813 26.046C83.0343 26.046 82.0029 27.2492 82.0029 28.4525H82.2608C82.3467 27.9368 82.6046 27.5071 83.1202 27.5071C83.6359 27.5071 84.0656 27.8509 84.0656 28.9682V32.32C82.5186 32.406 81.5732 33.2655 81.5732 34.3827C81.5732 35.0703 81.917 36.1017 82.9483 36.1017V35.9298C82.6046 35.7579 82.5186 35.5 82.5186 35.3282C82.5186 34.8125 82.9483 34.6406 83.6359 34.6406H83.9797V39.9692C82.6905 40.399 82.1748 41.3444 82.1748 42.3757C82.1748 43.8368 83.2921 44.8682 85.011 44.8682C86.2143 44.8682 87.2456 44.6963 88.277 44.4384C89.1365 44.2665 90.2537 44.0087 90.7694 44.0087C91.457 44.0087 91.7148 44.3525 91.7148 44.7822C91.7148 45.3838 91.457 45.6417 91.1132 45.7276V45.8995C92.4883 45.6417 93.3478 44.7822 93.3478 43.493C93.3478 42.2038 92.0586 41.4303 90.6835 41.4303C89.9959 41.4303 88.5348 41.6882 87.5035 41.86C86.3002 42.1179 85.097 42.2898 84.7532 42.2898C84.1516 42.2898 83.464 42.0319 83.464 41.1725C83.464 40.4849 84.0656 39.8833 85.5267 39.8833C86.3002 39.8833 87.2456 39.9692 88.191 40.2271C89.2224 40.4849 90.1678 40.7427 91.0273 40.7427C92.3165 40.7427 93.4338 40.313 93.4338 38.5082V27.9368L94.4651 27.0773L94.2932 26.9055V26.9055ZM90.7694 32.1482C90.5116 32.406 90.1678 32.6638 89.7381 32.6638C89.3083 32.6638 88.8786 32.406 88.7067 32.1482V28.3665L89.5662 27.7649L90.7694 28.8822V32.1482ZM90.7694 34.7265C90.5975 34.5546 90.1678 34.2968 89.7381 34.2968C89.3083 34.2968 88.8786 34.5546 88.7067 34.7265V32.4919C88.8786 32.6638 89.3083 32.9217 89.7381 32.9217C90.1678 32.9217 90.5975 32.6638 90.7694 32.4919V34.7265ZM90.7694 38.766C90.7694 39.4536 90.3397 40.1411 89.3943 40.1411H88.7067V35.0703C88.8786 34.8984 89.3083 34.6406 89.7381 34.6406C90.1678 34.6406 90.5116 34.8984 90.7694 35.0703V38.766V38.766ZM102.544 32.6638L99.7937 30.6871L95.5824 33.0936V38.68L94.7229 39.3676L94.8089 39.5395L95.4965 39.0238L98.2467 41.0865L102.544 38.5082V32.6638V32.6638ZM97.9029 38.0784V31.8903L100.052 33.4373V39.5395L97.9029 38.0784V38.0784ZM110.709 30.859H110.537C110.279 31.0309 110.021 31.2027 109.763 31.2027C109.42 31.2027 108.99 31.0309 108.818 30.773H108.646L107.185 32.406L105.724 30.773L103.146 32.4919L103.232 32.6638L103.919 32.2341L104.779 33.1795V38.5941L103.661 39.4536L103.833 39.6255L104.349 39.1957L106.412 40.9146L109.076 39.1098L108.99 38.9379L108.216 39.3676L107.185 38.5082V32.4919C107.615 32.9217 108.131 33.3514 108.732 33.3514C109.935 33.4373 110.623 32.2341 110.709 30.859V30.859ZM121.022 39.1098L118.1 41.0865L114.147 35.0703L116.983 30.6871H117.155C117.499 31.0309 118.014 31.3746 118.616 31.3746C119.218 31.3746 119.647 31.0309 119.905 30.6871H120.077C119.991 32.406 118.788 33.4373 117.928 33.4373C117.069 33.4373 116.639 33.0076 116.123 32.7498L115.866 33.1795L120.163 39.5395L121.022 39.0238V39.1098V39.1098ZM111.568 38.68L110.451 39.5395L110.623 39.7114L111.139 39.2817L113.029 41.0006L115.608 39.2817L115.436 39.1098L114.748 39.5395L113.889 38.68V25.4444H113.803L110.709 27.5071V27.679C111.053 27.8509 111.568 27.9368 111.568 28.9682V38.68V38.68ZM135.289 27.2492C135.289 25.5303 133.656 25.1006 132.367 25.1006V25.3584C133.141 25.3584 133.742 25.6163 133.742 26.2179C133.742 26.5617 133.485 27.0773 132.711 27.0773C132.109 27.0773 130.82 26.7336 129.875 26.3898C128.758 26.046 127.726 25.7022 126.867 25.7022C125.148 25.7022 123.945 26.9914 123.945 28.4525C123.945 29.7417 124.89 30.1714 125.234 30.3433L125.32 30.1714C125.062 29.9995 124.804 29.8276 124.804 29.3119C124.804 28.9682 125.148 28.3665 126.007 28.3665C126.781 28.3665 127.812 28.7103 129.187 29.14C130.391 29.4838 131.68 29.7417 132.367 29.8276V32.4919L131.078 33.6092V33.6952L132.367 34.8125V38.5082C131.68 38.9379 130.906 39.0238 130.219 39.0238C128.929 39.0238 127.812 38.68 126.867 37.6487L130.391 35.9298V29.9136L126.093 31.8044C126.523 30.6871 127.468 29.9136 128.328 29.3119L128.242 29.14C125.663 29.8276 123.343 32.1482 123.343 35.0703C123.343 38.5082 126.179 41.0865 129.359 41.0865C132.797 41.0865 135.032 38.3363 135.032 35.5H134.86C134.344 36.6173 133.571 37.6487 132.625 38.1644V34.6406L134 33.5233V33.4373L132.711 32.32V29.7417C134 29.7417 135.289 28.8822 135.289 27.2492V27.2492ZM127.812 36.7033L126.781 37.219C126.179 36.4455 125.835 35.4141 125.835 33.953C125.835 33.3514 125.921 32.6638 126.093 32.1482L127.898 31.3746L127.812 36.7033V36.7033ZM138.298 26.3898H138.212L136.493 27.8509V27.9368L137.954 29.5698H138.126L139.845 28.1087V28.0227L138.298 26.3898V26.3898ZM140.876 39.1098L140.188 39.5395L139.329 38.68V32.7498L140.188 32.1482L140.016 31.9763L139.415 32.4919L137.868 30.6871L135.375 32.406L135.547 32.6638L136.149 32.2341L136.922 33.1795V38.766L135.805 39.6255L135.891 39.7973L136.493 39.3676L138.383 41.0865L140.962 39.3676L140.876 39.1098V39.1098ZM155.229 39.0238L154.627 39.4536L153.682 38.5941V32.7498L154.541 32.0622L154.369 31.8903L153.682 32.4919L151.705 30.6871L149.127 32.4919L147.15 30.6871L144.743 32.4919L143.196 30.6871L140.704 32.406L140.79 32.6638L141.392 32.2341L142.251 33.1795V38.766L141.563 39.4536L143.54 41.0865L145.431 39.3676L144.658 38.5941V32.7498L145.431 32.2341L146.72 33.4373V38.5941L146.033 39.2817L148.009 40.9146L149.9 39.1957L149.127 38.4222V32.7498L149.814 32.32L151.189 33.5233V38.68L150.588 39.2817L152.565 41.0865L155.229 39.2817V39.0238V39.0238ZM162.706 37.7346L160.558 39.3676L158.409 37.6487V36.6173L162.448 33.8671V33.7811L160.386 30.6871L155.916 33.0936V38.9379L158.925 41.0865L162.792 37.9925L162.706 37.7346V37.7346ZM158.409 36.2736V32.0622L158.581 31.9763L160.472 34.9844L158.409 36.2736V36.2736ZM170.527 35.5L168.894 34.2109C170.012 33.2655 170.441 31.9763 170.441 31.1168V30.6011H170.269C170.098 31.0309 169.754 31.4606 169.066 31.4606C168.379 31.4606 167.949 31.1168 167.519 30.6011L163.652 32.7498V35.8438L165.113 36.9611C163.652 38.2503 163.394 39.1098 163.394 39.7973C163.394 40.6568 163.823 41.2584 164.511 41.5163L164.597 41.3444C164.425 41.1725 164.253 41.0865 164.253 40.6568C164.253 40.399 164.597 39.9692 165.285 39.9692C166.144 39.9692 166.66 40.5709 166.918 40.8287L170.613 38.5941V35.5H170.527V35.5ZM169.582 32.9217C168.98 33.953 167.691 34.9844 166.918 35.5L165.972 34.7265V31.7184C166.316 32.5779 167.261 33.2655 168.207 33.2655C168.808 33.2655 169.152 33.1795 169.582 32.9217V32.9217ZM168.121 39.7973C167.691 38.8519 166.66 38.1644 165.628 38.1644C165.371 38.1644 164.683 38.1644 163.995 38.5941C164.425 37.9065 165.542 36.7033 167.003 35.8438L168.035 36.7033L168.121 39.7973V39.7973Z" fill="#555C49"/>
</g>
<defs>
<clipPath id="clip0_1612_226947">
<rect width="183" height="20.7989" fill="white" transform="translate(0 25.1006)"/>
</clipPath>
</defs>
</svg>
