<svg width="183" height="72" viewBox="0 0 183 72" fill="none" xmlns="http://www.w3.org/2000/svg">
<path d="M170.152 41.2145C169.689 41.2145 169.304 41.5866 169.304 42.0888C169.304 42.5908 169.689 42.9629 170.152 42.9629C170.614 42.9629 171 42.5908 171 42.0888C171 41.5866 170.614 41.2145 170.152 41.2145ZM139.466 42.9069H143.359V42.5723L142.936 42.4792C142.55 42.3861 142.376 42.1817 142.376 41.6607V36.6023H143.282C143.841 36.6023 144.131 36.7325 144.169 37.8671L144.265 40.2475C144.342 42.3861 144.979 42.9815 146.058 42.9815C147.157 42.9815 147.446 42.256 147.446 41.2332V40.8053H147.041V41.1214C147.041 41.8098 146.945 42.2933 146.675 42.2933C146.424 42.2933 146.405 42.1074 146.347 41.2518L146.232 39.6154C146.077 37.4207 145.788 36.6582 144.111 36.3604C145.711 35.9514 146.694 34.8168 146.694 33.1987C146.694 31.0971 144.979 30.0928 143.34 30.0928H136.768V30.4277L137.134 30.502C137.828 30.6509 137.847 31.0043 137.847 32.5108V39.9127C137.847 41.5681 137.365 42.3676 136.266 42.3676C135.284 42.3676 134.744 41.9026 134.744 40.0986V31.3018C134.744 30.781 134.917 30.6324 135.341 30.5393L135.861 30.4277V30.0928H131.833V30.4277L132.257 30.5393C132.643 30.6509 132.777 30.7998 132.777 31.3203V39.9685C132.777 41.9212 133.953 43 135.746 43C137.538 43 138.425 41.9212 138.425 39.9127V31.8411C138.425 30.8368 138.637 30.4835 139.485 30.4835C140.16 30.4835 140.449 30.7067 140.449 31.3203V41.6607C140.449 42.1817 140.276 42.3676 139.89 42.4607L139.466 42.5723V42.9069V42.9069ZM165.333 31.3203C165.333 30.7998 165.507 30.6324 165.892 30.5578L166.412 30.4462V30.0928H162.403V30.4277L162.827 30.5393C163.213 30.6509 163.386 30.7998 163.386 31.3203V41.7355C163.386 42.2375 163.175 42.5165 162.577 42.5165C161.883 42.5165 161.786 42.2933 161.536 41.1962L159.069 30.0558H158.298L155.946 40.8426C155.676 42.0513 155.541 42.3306 155.021 42.4792L154.693 42.5723V42.9069H157.449V42.5723L157.045 42.4977C156.467 42.3861 156.312 42.0888 156.602 40.6752L157.989 33.7753L159.512 41.0843C159.743 42.1444 159.724 42.3491 158.895 42.4977L158.491 42.5723V42.9069H168.706V38.6667H168.34C168.147 40.6194 167.743 42.4607 166.104 42.4607H165.333V31.3203V31.3203ZM159.319 39.4477V38.9457H156.717L156.64 39.4477H159.319ZM148.564 31.5435V40.4334C148.564 41.7725 148.564 42.4049 147.87 42.5165L147.523 42.5723V42.9069H150.356V42.5723C149.123 42.4049 149.123 41.9957 149.123 40.545V32.1016L148.66 31.6924L153.383 42.9069H154.192V32.5666C154.192 31.0415 154.192 30.7067 154.963 30.502L155.233 30.4277V30.0928H152.322V30.4277L152.65 30.502C153.633 30.6694 153.633 31.0415 153.633 32.455V38.9269L153.826 38.8711L150.241 30.0928H147.484V30.4277L147.754 30.502C148.063 30.5951 148.236 30.9299 148.564 31.5435V31.5435ZM142.376 30.5393H143.148C143.918 30.5393 144.632 31.0228 144.632 33.4407C144.632 35.9142 144.092 36.1559 143.013 36.1559H142.376V30.5393ZM129.54 36.3791C129.54 41.7538 129.077 42.5165 128.074 42.5165C127.072 42.5165 126.629 41.7538 126.629 36.4162C126.629 31.246 127.111 30.502 128.074 30.502C129.077 30.502 129.54 31.246 129.54 36.3791ZM131.641 36.4907C131.641 32.9384 130.465 30 128.074 30C125.665 30 124.528 32.9384 124.528 36.4907C124.528 40.0616 125.704 43 128.074 43C130.522 43 131.641 40.0616 131.641 36.4907ZM123.391 31.3203C123.391 30.7998 123.526 30.6324 123.911 30.5393L124.335 30.4277V30.0928H120.345V30.4277L120.827 30.5393C121.212 30.6324 121.425 30.7625 121.425 31.3018V40.2475C121.425 41.4935 121.309 42.4977 120.345 42.4977C119.728 42.4977 119.266 42.0328 119.285 41.6982C119.343 41.1214 120.345 41.1589 120.422 40.2287C120.48 39.5593 120.037 39.2803 119.632 39.2247C119.034 39.1502 118.302 39.6336 118.283 40.6009C118.263 41.8468 119.111 42.9815 120.557 42.9815C122.157 42.9815 123.391 41.9399 123.391 39.9497V31.3203V31.3203ZM59.0118 31.3203C59.0118 30.7998 59.1853 30.6324 59.5707 30.5578L60.0913 30.4462V30.0928H56.0821V30.4277L56.5061 30.5393C56.8915 30.6509 57.0651 30.7998 57.0651 31.3203V41.7355C57.0651 42.2375 56.8529 42.5165 56.2553 42.5165C55.5616 42.5165 55.4459 42.2933 55.1953 41.1962L52.728 30.0558H51.9572L49.6056 40.8426C49.3359 42.0513 49.2008 42.3306 48.6805 42.4792L48.3527 42.5723V42.9069H51.1091V42.5723L50.7043 42.4977C50.1261 42.3861 49.9718 42.0888 50.261 40.6752L51.6488 33.738L53.1715 41.0843C53.3835 42.1444 53.3835 42.3491 52.5548 42.4977L52.1499 42.5723V42.9069H62.385V38.6667H62.0188C61.8261 40.6194 61.4213 42.4607 59.7829 42.4607H59.0118V31.3203V31.3203ZM112.673 30.5393H113.098C114.293 30.5393 114.698 32.3804 114.833 34.3333H115.198V30.0928H108.202V34.3333H108.568C108.703 32.3804 109.108 30.5393 110.303 30.5393H110.727V41.6607C110.727 42.1817 110.554 42.3676 110.168 42.4607L109.667 42.5723V42.9069H113.83V42.5723L113.233 42.4422C112.866 42.3491 112.673 42.2375 112.673 41.6607V30.5393V30.5393ZM103.865 36.472L104.462 36.4907C105.33 36.5093 105.58 36.8256 105.754 38.8528H106.12V33.6824H105.754C105.542 35.3005 105.31 35.9885 104.482 36.0072L103.865 36.0258V30.5393H105.195C106.679 30.5393 107.007 32.3434 107.219 34.3333H107.585V30.0929H100.935V30.4277L101.359 30.5393C101.802 30.6509 101.918 30.9114 101.918 31.3391V41.6607C101.918 42.1817 101.745 42.3676 101.359 42.4607L100.935 42.5723V42.9069H107.778V38.6667H107.411C107.18 40.6009 106.93 42.4607 105.195 42.4607H103.865V36.472V36.472ZM96.5982 36.472L97.1958 36.4907C98.0631 36.5093 98.3136 36.8256 98.4871 38.8528H98.8534V33.6824H98.4871C98.2752 35.3005 98.0439 35.9885 97.2152 36.0072L96.5982 36.0258V30.5393H97.9282C99.4125 30.5393 99.7401 32.3804 99.952 34.3333H100.318V30.0929H93.4758V30.4277L94.0926 30.5393C94.5358 30.6509 94.6515 30.9114 94.6515 31.3391V41.6607C94.6515 42.1817 94.478 42.3676 94.0926 42.4607L93.6685 42.5723V42.9069H100.511V38.6667H100.145C99.9136 40.6009 99.6628 42.4607 97.9282 42.4607H96.5982V36.472V36.472ZM88.6761 30.5393H89.2545C90.0253 30.5393 90.7385 31.0228 90.7385 33.4407C90.7385 35.8769 90.199 36.1559 89.1196 36.1559H88.6761V30.5393ZM85.7656 42.9069H89.6593V42.5723L89.235 42.4792C88.8496 42.3861 88.6761 42.1817 88.6761 41.6607V36.6023H89.3893C89.9483 36.6023 90.2374 36.8256 90.2761 37.8671L90.3723 40.2475C90.4496 42.3861 91.0855 42.9815 92.165 42.9815C93.2636 42.9815 93.5526 42.256 93.5526 41.2332V40.8053H93.148V41.1214C93.148 41.8098 93.0517 42.2933 92.7818 42.2933C92.5312 42.2933 92.5118 42.1074 92.4542 41.2518L92.3383 39.6154C92.1842 37.3649 91.8758 36.6582 90.2182 36.3604C91.818 35.9514 92.8009 34.8168 92.8009 33.1987C92.8009 31.0971 91.0855 30.0928 89.4472 30.0928H85.7656V30.4277L86.1896 30.5393C86.5753 30.6509 86.7485 30.7998 86.7485 31.3203V41.6607C86.7485 42.1817 86.5753 42.3676 86.1896 42.4607L85.7656 42.5723V42.9069V42.9069ZM82.8166 30.5393H83.2407C84.4356 30.5393 84.8404 32.3804 84.9755 34.3333H85.3415V30.0928H78.3448V34.3333H78.711C78.8458 32.3804 79.2507 30.5393 80.4458 30.5393H80.8699V41.6607C80.8699 42.1817 80.6961 42.3676 80.3109 42.4607L79.8096 42.5723V42.9069H83.8766V42.5723L83.3756 42.4607C82.8745 42.3491 82.8166 41.9772 82.8166 41.6607V30.5393V30.5393ZM78.3639 39.5778C78.3639 35.7653 74.0272 34.761 74.0272 31.99C74.0272 31.3949 74.2585 30.502 75.2221 30.502C76.6099 30.502 77.1304 32.2317 77.3618 34.3333H77.728V30.0928H77.4966C77.4002 30.502 77.2267 30.6882 76.9764 30.6882C76.5329 30.6882 76.3015 30.0185 75.2415 30.0185C73.6031 30.0185 72.485 31.3391 72.485 33.0686C72.485 36.2117 76.822 37.532 76.822 40.4334C76.822 41.7538 76.1858 42.4977 75.3185 42.4977C74.0272 42.4977 73.1791 41.0288 72.9477 38.6667H72.5815V42.9069H72.8129C73.0056 42.2933 73.2561 42.2375 73.468 42.2375C73.8345 42.2375 74.2199 42.9815 75.3377 42.9815C77.0534 42.9815 78.3639 41.5495 78.3639 39.5778V39.5778ZM65.7388 31.3203C65.7388 30.7998 65.9123 30.6324 66.2978 30.5578L66.8183 30.4462V30.0928H62.8091V30.4277L63.2332 30.5393C63.6186 30.6509 63.7921 30.7998 63.7921 31.3203V41.6607C63.7921 42.1817 63.6186 42.3676 63.2332 42.4607L62.8091 42.5723V42.9069H69.1121V38.6667H68.7456C68.5531 40.6194 68.1483 42.4607 66.5099 42.4607H65.7388V31.3203V31.3203ZM52.9786 39.4477V38.9457H50.3767L50.2994 39.4477H52.9786ZM41.8378 42.9442H42.6281L44.4205 33.794H44.1508L46.1167 42.9442H46.8108L49.1624 32.1574C49.4129 31.0228 49.5478 30.6324 50.0105 30.5205L50.3767 30.4277V30.0928H47.6589V30.4277L48.0637 30.502C48.6418 30.6136 48.7767 30.9484 48.507 32.3246L46.9843 39.5593H47.2156L45.6735 31.9342C45.5191 31.2087 45.4229 30.6136 46.0591 30.502L46.4829 30.4277V30.0928H42.7629V30.4277L43.0135 30.4835C43.3991 30.5763 43.457 30.7998 43.611 31.5065L44.2086 34.2775L44.0929 32.6036L42.7629 39.3734H42.9364L41.3751 31.9342C41.2016 31.1717 41.1437 30.5951 41.7605 30.4835L42.0499 30.4277V30.0928H38.2527V30.4277L38.6189 30.5205C38.9656 30.6136 39.1586 30.781 39.3899 31.8038L41.8378 42.9442V42.9442ZM31.5448 36.472L32.1424 36.4907C33.0097 36.5093 33.2602 36.8256 33.4338 38.8528H33.8V33.6824H33.4338C33.2219 35.3005 32.9905 35.9885 32.1616 36.0072L31.5448 36.0258V30.5393H32.8748C34.3589 30.5393 34.6867 32.3804 34.8986 34.3333H35.2648V30.0929H28.6151V30.4277L29.0392 30.5393C29.4824 30.6509 29.5981 30.9114 29.5981 31.3391V41.6607C29.5981 42.1817 29.4246 42.3676 29.0392 42.4607L28.6151 42.5723V42.9069H35.4578V38.6667H35.0913C34.8602 40.6009 34.6097 42.4607 32.8748 42.4607H31.5448V36.472V36.472ZM19.4208 42.9069H23.3722V42.5723L22.9289 42.4792C22.5819 42.4049 22.3505 42.1817 22.3505 41.6607V36.5838H25.2611V41.6607C25.2611 42.1817 25.03 42.4049 24.683 42.4792L24.2397 42.5723V42.9069H28.1911V42.5723L27.767 42.4607C27.3816 42.3676 27.2078 42.1629 27.2078 41.6424V31.3203C27.2078 30.7998 27.3816 30.6324 27.767 30.5393L28.1911 30.4277V30.0928H24.2397V30.4277L24.683 30.5393C25.0105 30.6324 25.2611 30.7625 25.2611 31.3018V36.0816H22.3505V31.3018C22.3505 30.781 22.5627 30.6324 22.9289 30.5393L23.3722 30.4277V30.0928H19.4208V30.4277L19.8449 30.5393C20.2305 30.6509 20.4038 30.7998 20.4038 31.3203V41.6607C20.4038 42.1817 20.2305 42.3676 19.8449 42.4607L19.4208 42.5723V42.9069ZM16.4716 30.5393H16.8959C18.0908 30.5393 18.4957 32.3804 18.6305 34.3333H18.9968V30.0928H12V34.3333H12.3662C12.5011 32.3804 12.9059 30.5393 14.1008 30.5393H14.5249V41.6607C14.5249 42.1817 14.3516 42.3676 13.966 42.4607L13.4649 42.5723V42.9069H17.6284V42.5723L17.0308 42.4422C16.6646 42.3491 16.4716 42.2375 16.4716 41.6607V30.5393V30.5393Z" fill="#555C49"/>
</svg>
